# xmcd
#
# Track frame offsets:
#	150
#	11995
#	25455
#	47480
#	59362
#	74537
#	85995
#	96550
#	117387
#	132297
#	145352
#	157217
#	169685
#	179200
#	194217
#	207545
#
# Disc length: 3092
#
# Revision: 2
# Processed by: cddbd v1.5.1PL0 Copyright (c) Steve Scherf et al.
# Submitted via: ExactAudioCopy v0.90b3
# Normalized: r0:DSETVAR1,TDELIM( - ),TSWAP
#
DISCID=090c1210
DTITLE=Various Artist - Soul Classics
DYEAR=1998
DGENRE=Soul
TTITLE0=The Temptations - Get Ready
TTITLE1=Jackie Wilson - (Your Love Keeps Lifting Me) Higher and Higher
TTITLE2=Ike and Tina Turner - Proud Mary
TTITLE3=Curtis Mayfield and The Impressions - People Get Ready
TTITLE4=Barry White - Can't Get Enough Of Your Love Babe
TTITLE5=The Isley Brothers - Twist And Shout
TTITLE6=Etta James - Tell Mama
TTITLE7=Gladys Night and The Pips - Midnight Train To Georgia
TTITLE8=The Main Ingredient - Everybody Plays The Fool
TTITLE9=Joe Tex - Show Me
TTITLE10=Sam and Dave - Soul Man
TTITLE11=Tyrone Davis - Can I Change My Mind
TTITLE12=James Brown - Papa's Got A Brand New Bag
TTITLE13=The Delfonics - Didn't I (Blow Your Mind This Time)
TTITLE14=YoungHolt Unlimited - Soulful Strut
TTITLE15=B.B. King - The Thrill Is Gone
EXTD=
EXTT0=
EXTT1=
EXTT2=
EXTT3=
EXTT4=
EXTT5=
EXTT6=
EXTT7=
EXTT8=
EXTT9=
EXTT10=
EXTT11=
EXTT12=
EXTT13=
EXTT14=
EXTT15=
PLAYORDER=
